#tb 0: 1/25
#media_type 0: video
#codec_id 0: vp8
#dimensions 0: 640x360
#sar 0: 1/1
0,         -1,          0,        1,    20829, 0x6f4865e6
0,          0,          1,        1,     7425, 0x05c68198
0,          1,          2,        1,     7915, 0xbbde5e99
0,          2,          3,        1,     7095, 0xf7859d09
0,          3,          4,        1,     8685, 0x1945ccf9
0,          4,          5,        1,     7401, 0x9e6550da
0,          5,          6,        1,     7887, 0xf6845b99
0,          6,          7,        1,     6968, 0xb110b5e7
0,          7,          8,        1,     8093, 0xf30ab5d8
0,          8,          9,        1,     6727, 0x2aaefc46
0,          9,         10,        1,     7482, 0xb77e88b0
0,         10,         11,        1,     6793, 0x1c51209c
0,         11,         12,        1,    20083, 0xd85ea9b4
0,         12,         13,        1,     7365, 0x8c623815
0,         13,         14,        1,     7583, 0x4819a1ed
0,         14,         15,        1,     7172, 0x801ff90b
0,         15,         16,        1,     7591, 0xec1ea7f8
0,         16,         17,        1,     7252, 0x7be71ee6
0,         17,         18,        1,     7407, 0x4a3072b5
0,         18,         19,        1,     7066, 0xc9279410
0,         19,         20,        1,     7298, 0xcaa6319c
0,         20,         21,        1,     8522, 0x5965815b
0,         21,         22,        1,     8576, 0x6edba12b
0,         22,         23,        1,     8262, 0xd560e466
0,         23,         24,        1,    20468, 0xf79ebc9c
0,         24,         25,        1,     7160, 0x87fdc2d2
0,         25,         26,        1,     7506, 0x8fb0a9a9
0,         26,         27,        1,     7209, 0x1f55efae
0,         27,         28,        1,     7686, 0x3612d1af
0,         28,         29,        1,     6857, 0xeab55fc2
0,         29,         30,        1,     7366, 0x08196889
0,         30,         31,        1,     6976, 0x13c1590c
0,         31,         32,        1,     7238, 0xfa2efc7b
0,         32,         33,        1,     6676, 0x7ee2f9a0
0,         33,         34,        1,     7347, 0xad934aba
0,         34,         35,        1,     7698, 0x83181464
0,         35,         36,        1,    18942, 0xadf13f7f
0,         36,         37,        1,     7505, 0xf94a8535
0,         37,         38,        1,     7392, 0x05024128
0,         38,         39,        1,     7173, 0x00b1d451
0,         39,         40,        1,     6867, 0x2f041fec
0,         40,         41,        1,     7169, 0xccfec766
0,         41,         42,        1,     7502, 0xc0377c0b
0,         42,         43,        1,     6722, 0x59d0e379
0,         43,         44,        1,     6803, 0xfbac0911
0,         44,         45,        1,     8649, 0x2a71a248
0,         45,         46,        1,     8660, 0xe035add0
0,         46,         47,        1,     8552, 0x7bbabedd
0,         47,         48,        1,    19524, 0x8f575e9c
0,         48,         49,        1,     7144, 0x28cfc1d4
0,         49,         50,        1,     7754, 0xf6510cab
0,         50,         51,        1,     7983, 0x876a726f
0,         51,         52,        1,     7889, 0x00653ce6
0,         52,         53,        1,     7139, 0x1a4eb240
0,         53,         54,        1,     7776, 0xa4c50d17
0,         54,         55,        1,     7346, 0x3d015117
0,         55,         56,        1,     8058, 0x50c97fef
0,         56,         57,        1,     7200, 0xd2dcf537
0,         57,         58,        1,     7692, 0x547311d9
0,         58,         59,        1,     6795, 0x7393616b
0,         59,         60,        1,    17947, 0xec072f5b
0,         60,         61,        1,     7520, 0x1ee4a2d8
0,         61,         62,        1,     7352, 0xfcb24065
0,         62,         63,        1,     7112, 0x9cd20623
0,         63,         64,        1,     7331, 0x16971bb0
0,         64,         65,        1,     6844, 0xb2643f23
0,         65,         66,        1,     7144, 0x4aa7f758
0,         66,         67,        1,     7239, 0xef5b2539
0,         67,         68,        1,     7170, 0xd1ebe17d
0,         68,         69,        1,     8722, 0x8194fe07
0,         69,         70,        1,     8401, 0x546d37ef
0,         70,         71,        1,     8108, 0x2a6f999b
0,         71,         72,        1,    17922, 0xe1424c8a
0,         72,         73,        1,     6622, 0xd0ebcc87
0,         73,         74,        1,     7212, 0x42e8d4e3
0,         74,         75,        1,     7192, 0x0a41b28c
0,         75,         76,        1,     7522, 0x07198956
0,         76,         77,        1,     6802, 0x93c23616
0,         77,         78,        1,     7003, 0xa1dc813b
0,         78,         79,        1,     6984, 0x54c7721c
0,         79,         80,        1,     7157, 0x7901bc25
0,         80,         81,        1,     6431, 0x52fd5d26
0,         81,         82,        1,     7159, 0x3acfeff9
0,         82,         83,        1,     6694, 0x46bda8d6
0,         83,         84,        1,    16727, 0x9aae8010
0,         84,         85,        1,     6995, 0x2a98611e
0,         85,         86,        1,     7080, 0x49a2b0e5
0,         86,         87,        1,     7026, 0x0d21aa59
0,         87,         88,        1,     6644, 0x870ba03d
0,         88,         89,        1,     6791, 0x7dede56a
0,         89,         90,        1,     7419, 0x085d5774
0,         90,         91,        1,     6695, 0x4e36f0a9
0,         91,         92,        1,     7223, 0x8a2df4ab
0,         92,         93,        1,     9035, 0x21e26931
0,         93,         94,        1,     8412, 0x79801cab
0,         94,         95,        1,     8710, 0xa9fca89f
0,         95,         96,        1,    18406, 0xf294f070
0,         96,         97,        1,     7401, 0xa86845c5
0,         97,         98,        1,     7716, 0x1884c20a
0,         98,         99,        1,     7748, 0xae8e018f
0,         99,        100,        1,     8606, 0x48879dee
0,        100,        101,        1,     7616, 0x856dc1c7
0,        101,        102,        1,     7986, 0xa81661a2
0,        102,        103,        1,     7288, 0xf199dfaa
0,        103,        104,        1,     8160, 0x34fc791e
0,        104,        105,        1,     8791, 0x5af113a9
0,        105,        106,        1,     8768, 0x331aee9d
0,        106,        107,        1,     8534, 0x4c08aebb
0,        107,        108,        1,    18793, 0x936cded1
0,        108,        109,        1,     8207, 0xd3e8fc54
0,        109,        110,        1,     9074, 0x794b61b5
0,        110,        111,        1,     5187, 0xc53df263
0,        111,        112,        1,     4466, 0xef9cae4e
0,        112,        113,        1,     4457, 0xb11ca6ba
0,        113,        114,        1,     4032, 0x0965de70
0,        114,        115,        1,     4298, 0xbab065f4
0,        115,        116,        1,     4291, 0x473b6630
0,        116,        117,        1,     7632, 0xf2dc9c2f
0,        117,        118,        1,     7185, 0x4b69c6a4
0,        118,        119,        1,     7220, 0x3cf2d4bc
0,        119,        120,        1,    21538, 0xa9f5f373
0,        120,        121,        1,     5784, 0x16ae0840
0,        121,        122,        1,     5127, 0xc5f4c7c3
0,        122,        123,        1,     4878, 0xa401737c
0,        123,        124,        1,     4574, 0x6772f9c0
0,        124,        125,        1,     4567, 0x62d708cb
